<svg xmlns="http://www.w3.org/2000/svg" style="display:block" viewBox="0 0 200 200"><path d="M0 0c4.586 5.51 6.28 9.978 6 17.188C4.136 32.347-6.99 43.111-18.313 52.25c-6.797 5.493-12.519 11.3-14.128 20.188-.56 11.83 6.863 21.01 13.254 30.417L-18 105l-1 2c-2.892-2.774-5.76-5.572-8.625-8.375l-2.45-2.348C-37.105 89.36-44.008 81.55-44.312 71.25l-.113-2.484c.991-6.436 5.275-11.116 9.801-15.516l1.56-1.542c4.464-4.32 9.261-8.127 14.183-11.907C-10.023 32.984-2.033 25.46 0 14 .15 9.328.117 4.672 0 0Z" transform="translate(119)" style="fill:red"/><path d="M0 0c-2.53 2.53-4.41 2.754-7.875 3.563l-3.18.753L-14 5c-1.334.33-2.668.662-4 1v3c23.564 5.688 47.639 5.655 71.688 4.25l2.208-.127c9.39-.558 18.648-1.384 27.916-3.06l2.654-.478C90.756 8.725 94.573 7.885 98 5V1l4 2c-.19 3.427-.689 4.715-3.25 7.063C66.592 29.172 8.805 22.89-26.11 15.575-28 15-28 15-31 13c.263-3.156.723-4.695 2.875-7.063C-19.445.556-10.09-1.853 0 0Z" transform="translate(60 170)" style="fill:#6599ff"/><path d="m0 0-2.64 1.652C-19.062 10.818-19.062 10.818-30 25c-1.19 7.14 2.371 12.103 6.223 17.813C-20.73 47.53-20.03 51.544-21 57c-2.925 5.85-8.014 11.539-13.938 14.438L-37 72l1.129-1.652c2.958-4.716 4.773-8.354 3.793-13.953-1.579-4.1-4.252-7.339-7.012-10.72C-42.975 40.234-43.866 34.518-43 28c3.003-10.094 11.63-16.274 20.419-21.191C-6.022-2.007-6.022-2.007 0 0Z" transform="translate(143 41)" style="fill:red"/><path d="M0 0v1l-2.852.805-3.773 1.07-3.727 1.055A230.972 230.972 0 0 0-20 7v2c4.94.798 9.75 1.171 14.758 1.203l2.222.02c2.382.018 4.763.024 7.145.027l2.47.006c14.642.009 28.925-1.047 43.457-2.892C54.361 6.832 58.678 6.408 63 6c-6.922 5.347-13.294 7.614-21.938 8.688l-2.552.353c-2.501.34-5.005.65-7.51.959l-2.049.297c-7.08.95-14.202.89-21.332.888-2.218.002-4.436.02-6.654.04-26.357.104-26.357.104-34.965-5.225-.664-2.102-.664-2.102-1-4C-24.156 1.803-12.435-.834 0 0Z" transform="translate(79 113)" style="fill:#6598ff"/><path d="m0 0-3 3c13.344 2.368 26.061 2.89 39.438.688C43.665 2.631 48.087 3.764 54 8v2c-18.687 6.825-41.04 9.868-60 2-4.905-4.218-4.905-4.218-5.25-7.063C-8.714 1.007-4.578-1.526 0 0Z" transform="translate(76 156)" style="fill:#6598ff"/><path d="m0 0-2 4c17.814 2.285 35.06 2.842 52.793-.531 4.507-.807 6.953-.377 10.77 1.969A93.097 93.097 0 0 1 65 8c-2.778 1.852-4.1 2.4-7.246 3.035l-2.519.513-2.672.514-2.745.535C43.216 13.845 36.725 14.792 30 15l-3.531.121C.029 15.585.029 15.585-9 9c-1.313-2.5-1.313-2.5-1-5C-7.067.229-4.77-1.59 0 0Z" transform="translate(70 136)" style="fill:#6599ff"/><path d="m0 0 1 3c-4.368 7.176-11.389 9.706-19.23 11.906-16.016 3.686-31.996 4.422-48.364 4.355-3.1-.011-6.199 0-9.299.012-13.836.01-27.012-.306-40.107-5.273v-1l3.431.21c12.068.706 24.106 1.03 36.194 1.04l2.762.004C-58.883 14.25-44.541 13.547-30 11l2.196-.372C-18.224 8.955-7.22 6.97 0 0Z" transform="translate(170 180)" style="fill:#6698ff"/><path d="M0 0c3.946 4.258 5.38 7.038 5.273 12.918C4.817 16.396 3.213 18.332 1 21l-1.367 1.715C-6.926 30.17-16.276 33.945-26 35c2.83-2.975 5.76-5.4 9.125-7.75l2.633-1.86C-12 24-12 24-10 24l.813-1.625a97.942 97.942 0 0 1 2.812-5.188C-4.742 13.402-4.406 11.082-5 7c-2.173-2.63-3.947-4.473-7-6a95.33 95.33 0 0 0-5.125-.063l-2.758.028L-22 1c2-3 2-3 3.855-3.672C-11.477-3.692-5.995-3.409 0 0Z" transform="translate(166 114)" style="fill:#6599ff"/><path d="m0 0 2 1Z" transform="translate(52 192)" style="fill:#6698ff"/></svg>